<svg xmlns="http://www.w3.org/2000/svg" viewBox="0 0 640 200" fill="none" aria-hidden="true">
  <defs>
    <linearGradient id="c1" x1="0" y1="200" x2="640" y2="0" gradientUnits="userSpaceOnUse">
      <stop stop-color="#022c22"/>
      <stop offset="0.5" stop-color="#0f766e"/>
      <stop offset="1" stop-color="#042f2e"/>
    </linearGradient>
    <radialGradient id="c1g" cx="0" cy="0" r="1" gradientUnits="userSpaceOnUse" gradientTransform="translate(360 100) scale(280 200)">
      <stop stop-color="#2dd4bf" stop-opacity="0.28"/>
      <stop offset="0.55" stop-color="#0d9488" stop-opacity="0.08"/>
      <stop offset="1" stop-color="#022c22" stop-opacity="0"/>
    </radialGradient>
    <linearGradient id="c1emb" x1="0" y1="0" x2="1" y2="1">
      <stop stop-color="#5eead4" stop-opacity="0.35"/>
      <stop offset="1" stop-color="#134e4a" stop-opacity="0.6"/>
    </linearGradient>
  </defs>
  <rect width="640" height="200" fill="url(#c1)"/>
  <rect width="640" height="200" fill="url(#c1g)"/>
  <rect x="44" y="40" width="88" height="120" rx="10" fill="#0f172a" fill-opacity="0.5" stroke="#5eead4" stroke-opacity="0.3" stroke-width="1"/>
  <rect x="58" y="56" width="60" height="6" rx="2" fill="#ccfbf1" fill-opacity="0.2"/>
  <rect x="58" y="70" width="52" height="5" rx="2" fill="#94a3b8" fill-opacity="0.15"/>
  <rect x="58" y="88" width="60" height="56" rx="8" fill="url(#c1emb)"/>
  <rect x="148" y="52" width="220" height="96" rx="14" fill="#0f172a" fill-opacity="0.55" stroke="#34d399" stroke-opacity="0.28" stroke-width="1.2"/>
  <circle cx="200" cy="100" r="8" fill="#14b8a6" fill-opacity="0.9"/>
  <circle cx="258" cy="88" r="6" fill="#2dd4bf" fill-opacity="0.65"/>
  <circle cx="300" cy="112" r="6" fill="#5eead4" fill-opacity="0.5"/>
  <circle cx="330" cy="92" r="5" fill="#99f6e4" fill-opacity="0.45"/>
  <path d="M200 100 Q230 72 258 88" stroke="#5eead4" stroke-opacity="0.45" stroke-width="2" fill="none"/>
  <path d="M258 88 Q280 108 300 112" stroke="#34d399" stroke-opacity="0.35" stroke-width="2" fill="none"/>
  <path d="M300 112 Q318 98 330 92" stroke="#2dd4bf" stroke-opacity="0.3" stroke-width="1.5" fill="none"/>
  <rect x="168" y="124" width="180" height="16" rx="6" fill="#134e4a" fill-opacity="0.55" stroke="#5eead4" stroke-opacity="0.2" stroke-width="1"/>
  <rect x="392" y="36" width="204" height="128" rx="14" fill="#042f2e" fill-opacity="0.65" stroke="#99f6e4" stroke-opacity="0.22" stroke-width="1"/>
  <rect x="412" y="56" width="164" height="10" rx="3" fill="#e2e8f0" fill-opacity="0.1"/>
  <rect x="412" y="74" width="140" height="8" rx="2" fill="#94a3b8" fill-opacity="0.12"/>
  <rect x="412" y="94" width="164" height="48" rx="10" fill="#0f172a" fill-opacity="0.45"/>
  <rect x="428" y="108" width="120" height="6" rx="2" fill="#ccfbf1" fill-opacity="0.18"/>
  <rect x="428" y="122" width="100" height="6" rx="2" fill="#99f6e4" fill-opacity="0.1"/>
</svg>
