<svg xmlns="http://www.w3.org/2000/svg" viewBox="0 0 640 200" fill="none" aria-hidden="true">
  <defs>
    <linearGradient id="b1" x1="640" y1="0" x2="0" y2="200" gradientUnits="userSpaceOnUse">
      <stop stop-color="#0f0720"/>
      <stop offset="0.45" stop-color="#4c1d95"/>
      <stop offset="1" stop-color="#0f172a"/>
    </linearGradient>
    <radialGradient id="b1g" cx="0" cy="0" r="1" gradientUnits="userSpaceOnUse" gradientTransform="translate(120 160) rotate(-45) scale(200 160)">
      <stop stop-color="#a78bfa" stop-opacity="0.35"/>
      <stop offset="0.65" stop-color="#7c3aed" stop-opacity="0.08"/>
      <stop offset="1" stop-color="#0f172a" stop-opacity="0"/>
    </radialGradient>
    <linearGradient id="b1card" x1="0" y1="0" x2="0" y2="1">
      <stop stop-color="#5b21b6" stop-opacity="0.5"/>
      <stop offset="1" stop-color="#1e1b4b" stop-opacity="0.85"/>
    </linearGradient>
  </defs>
  <rect width="640" height="200" fill="url(#b1)"/>
  <rect width="640" height="200" fill="url(#b1g)"/>
  <rect x="40" y="44" width="200" height="112" rx="12" fill="url(#b1card)" stroke="#c4b5fd" stroke-opacity="0.35" stroke-width="1.2"/>
  <rect x="56" y="60" width="100" height="8" rx="2" fill="#e9d5ff" fill-opacity="0.2"/>
  <rect x="56" y="78" width="168" height="28" rx="6" fill="#0f172a" fill-opacity="0.4"/>
  <rect x="56" y="116" width="140" height="8" rx="2" fill="#ddd6fe" fill-opacity="0.12"/>
  <rect x="56" y="132" width="100" height="8" rx="2" fill="#ddd6fe" fill-opacity="0.08"/>
  <rect x="256" y="52" width="344" height="96" rx="14" fill="#1e1b4b" fill-opacity="0.72" stroke="#8b5cf6" stroke-opacity="0.3" stroke-width="1.2"/>
  <path d="M288 100h220" stroke="#a78bfa" stroke-opacity="0.35" stroke-width="3" stroke-linecap="round"/>
  <circle cx="288" cy="100" r="10" fill="#7c3aed" fill-opacity="0.85"/>
  <circle cx="388" cy="100" r="10" fill="#6d28d9" fill-opacity="0.65"/>
  <circle cx="488" cy="100" r="10" fill="#5b21b6" fill-opacity="0.55"/>
  <rect x="288" y="124" width="72" height="14" rx="4" fill="#c4b5fd" fill-opacity="0.15"/>
  <rect x="372" y="124" width="88" height="14" rx="4" fill="#a78bfa" fill-opacity="0.12"/>
  <rect x="476" y="124" width="96" height="14" rx="4" fill="#94a3b8" fill-opacity="0.12"/>
  <rect x="520" y="36" width="84" height="28" rx="8" fill="#4c1d95" fill-opacity="0.55" stroke="#c4b5fd" stroke-opacity="0.25" stroke-width="1"/>
  <rect x="536" y="48" width="20" height="4" rx="1" fill="#ede9fe" fill-opacity="0.35"/>
  <rect x="560" y="48" width="28" height="4" rx="1" fill="#c4b5fd" fill-opacity="0.25"/>
  <rect x="536" y="56" width="52" height="3" rx="1" fill="#a78bfa" fill-opacity="0.2"/>
</svg>
