<svg xmlns="http://www.w3.org/2000/svg" viewBox="0 0 640 200" fill="none" aria-hidden="true">
  <defs>
    <linearGradient id="d1" x1="320" y1="0" x2="320" y2="200" gradientUnits="userSpaceOnUse">
      <stop stop-color="#082f49"/>
      <stop offset="0.5" stop-color="#0369a1"/>
      <stop offset="1" stop-color="#0c1929"/>
    </linearGradient>
    <radialGradient id="d1g" cx="0" cy="0" r="1" gradientUnits="userSpaceOnUse" gradientTransform="translate(480 36) rotate(120) scale(200 220)">
      <stop stop-color="#38bdf8" stop-opacity="0.35"/>
      <stop offset="0.6" stop-color="#0284c7" stop-opacity="0.1"/>
      <stop offset="1" stop-color="#0f172a" stop-opacity="0"/>
    </radialGradient>
    <linearGradient id="d1pipe" x1="0" y1="0" x2="1" y2="0">
      <stop stop-color="#22d3ee" stop-opacity="0.5"/>
      <stop offset="1" stop-color="#0ea5e9" stop-opacity="0.15"/>
    </linearGradient>
  </defs>
  <rect width="640" height="200" fill="url(#d1)"/>
  <rect width="640" height="200" fill="url(#d1g)"/>
  <rect x="48" y="56" width="544" height="88" rx="12" fill="#0f172a" fill-opacity="0.4" stroke="#38bdf8" stroke-opacity="0.22" stroke-width="1"/>
  <rect x="72" y="78" width="100" height="44" rx="10" fill="#0369a1" fill-opacity="0.45" stroke="#7dd3fc" stroke-opacity="0.35" stroke-width="1"/>
  <rect x="88" y="94" width="52" height="6" rx="2" fill="#e0f2fe" fill-opacity="0.35"/>
  <rect x="88" y="104" width="68" height="4" rx="1" fill="#bae6fd" fill-opacity="0.2"/>
  <rect x="192" y="78" width="100" height="44" rx="10" fill="#0c4a6e" fill-opacity="0.55" stroke="#38bdf8" stroke-opacity="0.28" stroke-width="1"/>
  <rect x="208" y="94" width="56" height="6" rx="2" fill="#7dd3fc" fill-opacity="0.25"/>
  <rect x="208" y="104" width="72" height="4" rx="1" fill="#38bdf8" fill-opacity="0.15"/>
  <rect x="312" y="78" width="100" height="44" rx="10" fill="#075985" fill-opacity="0.5" stroke="#22d3ee" stroke-opacity="0.3" stroke-width="1"/>
  <path d="M352 98l8 8 16-16" stroke="#4ade80" stroke-width="2.5" stroke-linecap="round" stroke-linejoin="round" fill="none" opacity="0.9"/>
  <rect x="432" y="78" width="100" height="44" rx="10" fill="#0f172a" fill-opacity="0.55" stroke="#0ea5e9" stroke-opacity="0.25" stroke-width="1"/>
  <rect x="448" y="94" width="60" height="6" rx="2" fill="#94a3b8" fill-opacity="0.2"/>
  <rect x="448" y="104" width="48" height="4" rx="1" fill="#64748b" fill-opacity="0.2"/>
  <rect x="548" y="78" width="44" height="44" rx="10" fill="#0284c7" fill-opacity="0.4" stroke="#7dd3fc" stroke-opacity="0.35" stroke-width="1"/>
  <path d="M564 104h20M574 94v20" stroke="#e0f2fe" stroke-width="2.5" stroke-linecap="round" opacity="0.7"/>
  <rect x="68" y="124" width="504" height="6" rx="3" fill="url(#d1pipe)"/>
  <circle cx="122" cy="127" r="4" fill="#22d3ee" fill-opacity="0.8"/>
  <circle cx="242" cy="127" r="4" fill="#38bdf8" fill-opacity="0.65"/>
  <circle cx="362" cy="127" r="4" fill="#4ade80" fill-opacity="0.55"/>
  <circle cx="482" cy="127" r="4" fill="#0ea5e9" fill-opacity="0.5"/>
  <circle cx="570" cy="127" r="4" fill="#7dd3fc" fill-opacity="0.45"/>
</svg>
