<svg xmlns="http://www.w3.org/2000/svg" viewBox="0 0 640 200" fill="none" aria-hidden="true">
  <defs>
    <linearGradient id="e1" x1="0" y1="100" x2="640" y2="100" gradientUnits="userSpaceOnUse">
      <stop stop-color="#0f172a"/>
      <stop offset="0.5" stop-color="#334155"/>
      <stop offset="1" stop-color="#1e293b"/>
    </linearGradient>
    <pattern id="e1grid" width="24" height="24" patternUnits="userSpaceOnUse">
      <path d="M24 0H0V24" stroke="#94a3b8" stroke-opacity="0.06" stroke-width="0.5" fill="none"/>
      <circle cx="2" cy="2" r="1" fill="#cbd5e1" fill-opacity="0.12"/>
    </pattern>
    <radialGradient id="e1g" cx="0" cy="0" r="1" gradientUnits="userSpaceOnUse" gradientTransform="translate(200 40) scale(320 200)">
      <stop stop-color="#64748b" stop-opacity="0.25"/>
      <stop offset="1" stop-color="#0f172a" stop-opacity="0"/>
    </radialGradient>
  </defs>
  <rect width="640" height="200" fill="url(#e1)"/>
  <rect width="640" height="200" fill="url(#e1g)"/>
  <rect width="640" height="200" fill="url(#e1grid)" opacity="0.9"/>
  <rect x="40" y="36" width="320" height="128" rx="14" fill="#1e293b" fill-opacity="0.75" stroke="#94a3b8" stroke-opacity="0.3" stroke-width="1.2"/>
  <rect x="56" y="52" width="12" height="12" rx="2" fill="#475569"/>
  <rect x="76" y="56" width="80" height="6" rx="2" fill="#e2e8f0" fill-opacity="0.15"/>
  <rect x="56" y="76" width="288" height="72" rx="8" fill="#0f172a" fill-opacity="0.55"/>
  <rect x="68" y="88" width="8" height="8" rx="1" fill="#22c55e" fill-opacity="0.65"/>
  <rect x="84" y="90" width="200" height="5" rx="2" fill="#86efac" fill-opacity="0.12"/>
  <rect x="68" y="104" width="8" height="8" rx="1" fill="#eab308" fill-opacity="0.5"/>
  <rect x="84" y="106" width="160" height="5" rx="2" fill="#fde047" fill-opacity="0.1"/>
  <rect x="68" y="120" width="8" height="8" rx="1" fill="#38bdf8" fill-opacity="0.45"/>
  <rect x="84" y="122" width="220" height="5" rx="2" fill="#7dd3fc" fill-opacity="0.1"/>
  <rect x="380" y="44" width="220" height="112" rx="14" fill="#334155" fill-opacity="0.65" stroke="#cbd5e1" stroke-opacity="0.22" stroke-width="1"/>
  <path d="M408 88 L448 68 L488 88 L528 72 L568 96" stroke="#94a3b8" stroke-width="2.5" stroke-linecap="round" stroke-linejoin="round" fill="none" opacity="0.55"/>
  <circle cx="448" cy="68" r="6" fill="#38bdf8" fill-opacity="0.55"/>
  <circle cx="488" cy="88" r="6" fill="#a78bfa" fill-opacity="0.45"/>
  <circle cx="528" cy="72" r="6" fill="#34d399" fill-opacity="0.4"/>
  <rect x="400" y="108" width="180" height="36" rx="8" fill="#0f172a" fill-opacity="0.45"/>
  <rect x="416" y="120" width="100" height="6" rx="2" fill="#e2e8f0" fill-opacity="0.12"/>
  <rect x="416" y="132" width="72" height="4" rx="1" fill="#94a3b8" fill-opacity="0.15"/>
</svg>
