<svg xmlns="http://www.w3.org/2000/svg" viewBox="0 0 1200 750" fill="none" aria-hidden="true">
  <defs>
    <linearGradient id="rag-bg" x1="1200" y1="0" x2="0" y2="750" gradientUnits="userSpaceOnUse">
      <stop stop-color="#042f2e"/>
      <stop offset="0.5" stop-color="#0f766e"/>
      <stop offset="1" stop-color="#134e4a"/>
    </linearGradient>
    <linearGradient id="rag-node" x1="0" y1="0" x2="1" y2="1">
      <stop stop-color="#2dd4bf"/>
      <stop offset="1" stop-color="#0d9488"/>
    </linearGradient>
  </defs>
  <rect width="1200" height="750" fill="url(#rag-bg)"/>
  <circle cx="600" cy="360" r="280" fill="#0f172a" fill-opacity="0.2" stroke="#5eead4" stroke-opacity="0.12" stroke-width="1"/>
  <!-- documents left -->
  <rect x="80" y="180" width="200" height="260" rx="10" fill="#0f172a" fill-opacity="0.55" stroke="#99f6e4" stroke-opacity="0.4" stroke-width="1.5" transform="rotate(-6 180 310)"/>
  <rect x="110" y="200" width="160" height="12" rx="3" fill="#ccfbf1" fill-opacity="0.2"/>
  <rect x="110" y="224" width="140" height="8" rx="2" fill="#94a3b8" fill-opacity="0.2"/>
  <rect x="110" y="244" width="148" height="8" rx="2" fill="#94a3b8" fill-opacity="0.12"/>
  <rect x="110" y="280" width="160" height="100" rx="6" fill="#134e4a" fill-opacity="0.4"/>
  <rect x="120" y="140" width="200" height="260" rx="10" fill="#0f172a" fill-opacity="0.45" stroke="#5eead4" stroke-opacity="0.35" stroke-width="1.5"/>
  <rect x="150" y="168" width="140" height="10" rx="3" fill="#e2e8f0" fill-opacity="0.18"/>
  <rect x="150" y="188" width="120" height="8" rx="2" fill="#64748b" fill-opacity="0.2"/>
  <rect x="150" y="220" width="160" height="140" rx="8" fill="#115e59" fill-opacity="0.35"/>
  <!-- center retrieval nodes -->
  <line x1="380" y1="320" x2="520" y2="280" stroke="#34d399" stroke-opacity="0.35" stroke-width="1.5"/>
  <line x1="380" y1="380" x2="520" y2="360" stroke="#34d399" stroke-opacity="0.28" stroke-width="1.5"/>
  <line x1="380" y1="440" x2="520" y2="440" stroke="#34d399" stroke-opacity="0.22" stroke-width="1.5"/>
  <circle cx="520" cy="280" r="14" fill="url(#rag-node)" fill-opacity="0.85"/>
  <circle cx="520" cy="360" r="14" fill="#2dd4bf" fill-opacity="0.7"/>
  <circle cx="520" cy="440" r="14" fill="#14b8a6" fill-opacity="0.55"/>
  <rect x="560" y="200" width="480" height="360" rx="20" fill="#0f172a" fill-opacity="0.5" stroke="#5eead4" stroke-opacity="0.3" stroke-width="1.5"/>
  <rect x="592" y="236" width="360" height="14" rx="4" fill="#e2e8f0" fill-opacity="0.12"/>
  <rect x="592" y="264" width="280" height="10" rx="3" fill="#94a3b8" fill-opacity="0.15"/>
  <!-- answer block -->
  <rect x="592" y="300" width="416" height="120" rx="12" fill="#134e4a" fill-opacity="0.45" stroke="#5eead4" stroke-opacity="0.25" stroke-width="1"/>
  <rect x="612" y="320" width="320" height="8" rx="2" fill="#ccfbf1" fill-opacity="0.25"/>
  <rect x="612" y="338" width="360" height="8" rx="2" fill="#99f6e4" fill-opacity="0.15"/>
  <rect x="612" y="356" width="240" height="8" rx="2" fill="#99f6e4" fill-opacity="0.12"/>
  <!-- citations -->
  <rect x="592" y="440" width="120" height="36" rx="8" fill="#0d9488" fill-opacity="0.35" stroke="#99f6e4" stroke-opacity="0.35" stroke-width="1"/>
  <rect x="724" y="440" width="120" height="36" rx="8" fill="#0f766e" fill-opacity="0.4" stroke="#5eead4" stroke-opacity="0.3" stroke-width="1"/>
  <rect x="856" y="440" width="120" height="36" rx="8" fill="#115e59" fill-opacity="0.45" stroke="#5eead4" stroke-opacity="0.25" stroke-width="1"/>
  <rect x="592" y="496" width="200" height="10" rx="3" fill="#64748b" fill-opacity="0.25"/>
  <rect x="592" y="514" width="160" height="10" rx="3" fill="#64748b" fill-opacity="0.15"/>
  <!-- vector hint -->
  <path d="M1000 200 L1080 200 L1040 280 Z" stroke="#99f6e4" stroke-opacity="0.4" stroke-width="1.5" fill="#0f172a" fill-opacity="0.35"/>
  <circle cx="1040" cy="480" r="56" stroke="#34d399" stroke-opacity="0.35" stroke-width="2" fill="none"/>
  <circle cx="1040" cy="480" r="28" fill="#2dd4bf" fill-opacity="0.25"/>
</svg>
