<svg xmlns="http://www.w3.org/2000/svg" viewBox="0 0 1200 750" fill="none" aria-hidden="true">
  <defs>
    <linearGradient id="okkp-bg" x1="0" y1="0" x2="1200" y2="750" gradientUnits="userSpaceOnUse">
      <stop stop-color="#0c1222"/>
      <stop offset="0.45" stop-color="#1e1b4b"/>
      <stop offset="1" stop-color="#312e81"/>
    </linearGradient>
    <linearGradient id="okkp-glow" x1="900" y1="80" x2="400" y2="600" gradientUnits="userSpaceOnUse">
      <stop stop-color="#6366f1" stop-opacity="0.35"/>
      <stop offset="1" stop-color="#6366f1" stop-opacity="0"/>
    </linearGradient>
    <linearGradient id="okkp-chart-fill" x1="320" y1="440" x2="320" y2="640" gradientUnits="userSpaceOnUse">
      <stop stop-color="#818cf8"/>
      <stop offset="1" stop-color="#312e81" stop-opacity="0"/>
    </linearGradient>
  </defs>
  <rect width="1200" height="750" fill="url(#okkp-bg)"/>
  <rect width="1200" height="750" fill="url(#okkp-glow)"/>
  <rect x="48" y="56" width="200" height="646" rx="14" fill="#0f172a" fill-opacity="0.55" stroke="#818cf8" stroke-opacity="0.35" stroke-width="1.5"/>
  <circle cx="108" cy="120" r="8" fill="#6366f1" fill-opacity="0.9"/>
  <rect x="132" y="112" width="88" height="16" rx="4" fill="#e2e8f0" fill-opacity="0.12"/>
  <rect x="88" y="168" width="120" height="10" rx="3" fill="#94a3b8" fill-opacity="0.2"/>
  <rect x="88" y="192" width="96" height="10" rx="3" fill="#64748b" fill-opacity="0.15"/>
  <rect x="88" y="216" width="108" height="10" rx="3" fill="#64748b" fill-opacity="0.12"/>
  <rect x="276" y="56" width="876" height="52" rx="12" fill="#0f172a" fill-opacity="0.4" stroke="#6366f1" stroke-opacity="0.25" stroke-width="1.2"/>
  <rect x="300" y="74" width="180" height="16" rx="4" fill="#c7d2fe" fill-opacity="0.15"/>
  <rect x="980" y="72" width="148" height="20" rx="6" fill="#4f46e5" fill-opacity="0.55"/>
  <rect x="276" y="132" width="268" height="118" rx="14" fill="#1e1b4b" fill-opacity="0.85" stroke="#a5b4fc" stroke-opacity="0.35" stroke-width="1.2"/>
  <rect x="300" y="156" width="72" height="10" rx="3" fill="#94a3b8" fill-opacity="0.35"/>
  <rect x="300" y="186" width="140" height="36" rx="6" fill="#e0e7ff" fill-opacity="0.12"/>
  <rect x="564" y="132" width="268" height="118" rx="14" fill="#1e1b4b" fill-opacity="0.75" stroke="#818cf8" stroke-opacity="0.3" stroke-width="1.2"/>
  <rect x="588" y="156" width="88" height="10" rx="3" fill="#94a3b8" fill-opacity="0.3"/>
  <rect x="588" y="186" width="120" height="36" rx="6" fill="#c7d2fe" fill-opacity="0.1"/>
  <rect x="852" y="132" width="300" height="118" rx="14" fill="#1e1b4b" fill-opacity="0.65" stroke="#818cf8" stroke-opacity="0.28" stroke-width="1.2"/>
  <rect x="876" y="156" width="100" height="10" rx="3" fill="#94a3b8" fill-opacity="0.28"/>
  <rect x="876" y="186" width="132" height="36" rx="6" fill="#a5b4fc" fill-opacity="0.08"/>
  <rect x="276" y="270" width="876" height="432" rx="16" fill="#0f172a" fill-opacity="0.45" stroke="#6366f1" stroke-opacity="0.22" stroke-width="1.2"/>
  <rect x="308" y="306" width="812" height="36" rx="8" fill="#312e81" fill-opacity="0.35"/>
  <rect x="324" y="318" width="120" height="12" rx="3" fill="#e2e8f0" fill-opacity="0.2"/>
  <rect x="520" y="318" width="200" height="12" rx="3" fill="#e2e8f0" fill-opacity="0.12"/>
  <rect x="780" y="318" width="160" height="12" rx="3" fill="#e2e8f0" fill-opacity="0.1"/>
  <rect x="308" y="358" width="812" height="1" fill="#818cf8" fill-opacity="0.15"/>
  <rect x="308" y="378" width="812" height="28" rx="6" fill="#1e293b" fill-opacity="0.5"/>
  <rect x="308" y="418" width="812" height="28" rx="6" fill="#1e293b" fill-opacity="0.35"/>
  <rect x="308" y="458" width="812" height="28" rx="6" fill="#1e293b" fill-opacity="0.25"/>
  <rect x="308" y="498" width="812" height="28" rx="6" fill="#1e293b" fill-opacity="0.2"/>
  <path d="M320 620 L380 560 L460 590 L560 480 L680 520 L780 440 L900 500 L980 460 L1020 500 V640 H320 Z" fill="url(#okkp-chart-fill)" opacity="0.35"/>
  <path d="M320 620 L380 560 L460 590 L560 480 L680 520 L780 440 L900 500 L980 460 L1020 500" stroke="#a5b4fc" stroke-width="3" stroke-linecap="round" stroke-linejoin="round" fill="none" opacity="0.9"/>
</svg>
